<svg version="1.2" xmlns="http://www.w3.org/2000/svg" viewBox="0 0 1472 828" width="1472" height="828">
	<title>FinalLogo</title>
	<style>
		.s0 { opacity: 1;fill: #010113 } 
		.s1 { opacity: 1;fill: #f0f0f0 } 
		.s2 { opacity: 1;fill: #555555 } 
		.s3 { opacity: 1;fill: #151515 } 
		.s4 { fill: #ffffff } 
		.s5 { fill: #000000 } 
		.s6 { fill: #fe0133 } 
		.s7 { fill: #010113 } 
	</style>
	<g id="Layer 1">
		<path id="Path 1" class="s0" d="m631.14 82.26c-7.33 3.2-16.75 7.9-20.92 10.45-4.17 2.55-12.54 8.21-18.6 12.58-6.06 4.36-15.96 12.53-21.99 18.15-6.03 5.62-15.27 15.58-20.53 22.14-5.26 6.56-12.99 17.83-17.16 25.04-4.18 7.21-10.02 18.87-12.98 25.92-2.97 7.05-7.11 18.92-9.2 26.38-2.1 7.47-4.67 19.45-5.71 26.62-1.04 7.18-2.05 19.02-2.25 26.31-0.19 7.29 0.38 19.94 1.28 28.12 0.9 8.17 3.8 23.1 6.45 33.18 3.76 14.3 6.66 22.26 13.17 36.15 4.6 9.8 11.72 23.21 15.83 29.79 4.11 6.57 7.87 12.51 8.36 13.18 0.49 0.67 2.13 3.38 3.65 6.01 1.51 2.64 3.47 4.53 4.35 4.21 0.87-0.32 1.39 0.02 1.15 0.74-0.24 0.73 1.55 4.07 3.98 7.44 2.42 3.37 5.7 9.65 7.27 13.96 1.58 4.32 4.68 9.79 6.89 12.18 2.22 2.38 7.71 6.81 12.21 9.85 4.5 3.04 11.53 7.26 15.63 9.38 4.1 2.12 8.07 3.63 8.82 3.36 0.76-0.27 1.59 0.12 1.87 0.87 0.27 0.75 1.25 1.07 2.18 0.7 0.93-0.36 4.35-0.03 7.61 0.74 3.25 0.77 15.22 2.14 26.6 3.05 11.37 0.91 21.78 1.98 23.13 2.38 1.35 0.4 3.15 0.57 4 0.38 0.85-0.19 5.49-0.04 10.3 0.35 4.81 0.38 19.97 0.95 33.68 1.27 13.71 0.31 34.61 0.44 46.45 0.29 11.84-0.16 22.59-0.23 23.89-0.16 1.3 0.08 3.02 0.04 3.83-0.08 0.8-0.12 7.29-0.44 14.41-0.72 7.13-0.27 14-0.48 15.28-0.46 1.29 0.02 3.01-0.02 3.84-0.09 0.82-0.07 9.17-1.01 18.55-2.09 11.15-1.29 21.57-3.49 30.12-6.38 7.19-2.43 13.81-5.24 14.72-6.25 0.91-1.01 3.1-2.64 4.86-3.63 1.77-0.99 6.02-4.6 9.45-8.01 3.43-3.42 8.33-9.32 10.89-13.11 2.55-3.79 6.41-10.38 8.57-14.66 2.16-4.28 4.21-8.91 4.56-10.29 0.34-1.39 2.7-9.24 5.24-17.46 2.54-8.21 5.53-20.54 6.66-27.38 1.12-6.85 1.9-17.61 1.73-23.92-0.17-6.31-1.42-14.55-2.79-18.3-1.36-3.75-3.4-7.7-4.52-8.78-1.13-1.08-5.75-2.77-10.26-3.77-4.51-1-24.81-5.42-45.1-9.84-20.3-4.41-40.03-9.34-43.85-10.94-3.82-1.61-8.74-5.05-10.93-7.65-2.3-2.72-6.23-10.47-9.25-18.27-2.9-7.44-5.69-16.16-6.21-19.37-0.51-3.21-0.51-8.08 0.02-10.82 0.53-2.74 2.56-7.15 4.52-9.81 1.96-2.65 7.28-7.99 11.82-11.87 4.54-3.87 15.53-13.82 24.41-22.11 8.88-8.3 22.4-21.79 30.04-29.99 7.64-8.2 16.14-17.81 18.88-21.37 2.75-3.55 5.07-7.35 5.15-8.44 0.09-1.1-8.95-9.46-20.08-18.58-11.13-9.13-25.98-20.76-33-25.86-7.59-5.5-22.24-13.71-36.12-20.22-14.6-6.86-29.07-12.37-38.62-14.72-8.4-2.06-19.63-4.27-24.96-4.9-5.33-0.64-14.11-1.37-19.51-1.63-5.41-0.25-15.77-0.07-23.02 0.42-7.26 0.49-17.43 1.67-22.61 2.63-5.17 0.96-16.91 4.03-26.09 6.83-9.19 2.8-22.7 7.69-30.04 10.88z"/>
		<path id="White shadow Main" class="s1" d="m650.05 124.08c-0.18 1.07-2.02 1.58-4.07 1.14-2.06-0.45-10.16 1.25-18.02 3.78-7.87 2.54-14.15 5.34-13.93 6.23 0.23 0.89-0.61 1.27-1.86 0.85-1.24-0.42-6.57 1.39-11.85 4.03-5.29 2.64-14.11 8.34-19.62 12.66-5.52 4.34-13.49 11.91-17.72 16.82-4.23 4.93-11.06 14.54-15.18 21.37-4.12 6.83-9.39 18.75-11.7 26.49-2.32 7.75-4.77 18.16-5.45 23.13-0.68 4.98-1.18 13.96-1.11 19.96 0.07 6.02 1.4 17.98 2.97 26.6 1.57 8.63 5.9 23.94 9.62 34.01 3.72 10.09 10.44 25.64 14.94 34.56 4.49 8.92 9.09 16.35 10.21 16.5 1.12 0.14 2.24 2.06 2.49 4.26 0.24 2.19 1.11 3.91 1.92 3.82 0.82-0.1 2.45 2.22 3.63 5.14 1.18 2.92 5.68 9.45 10 14.52 4.32 5.06 8.04 8.72 8.27 8.14 0.23-0.59-4.61-13.01-10.73-27.58-6.12-14.56-10.46-26.53-9.65-26.62 0.81-0.09 0.58-2.56-0.51-5.48-1.1-2.91-2.77-12.44-3.72-21.16-0.95-8.71-1.07-22.19-0.26-29.96 0.81-7.76 3.35-21 5.63-29.42 2.28-8.41 8.64-22.92 14.11-32.25 1.67-2.82 21.37-28.24 21.59-28.46 6.4-6.35 17.3-15.43 24.24-20.19 6.91-4.75 15.19-9.31 18.41-10.13 3.21-0.82 7.74-4.73 8.56-5.13 0.49-0.23 1-0.5 1.46-0.75 0.63-0.34 1.17-0.64 1.46-0.78 0.64-0.31 13.73-3.54 22.45-6.1 9.91-2.91 25.06-5.45 40.67-6.8 13.71-1.2 31.65-1.52 40.19-0.73 8.47 0.78 23.31 3.02 32.98 4.97 9.65 1.95 26.54 6.56 37.52 10.26l19.92 6.71c-7.85-7.68-17.38-14.37-26.25-19.83-8.88-5.47-23.38-13.16-32.21-17.11-8.85-3.94-23.82-9.42-33.28-12.16-9.48-2.75-25.94-6.3-36.6-7.89-10.68-1.59-21.64-2.44-24.34-1.89-2.71 0.56-5.17 0.39-5.47-0.37-0.3-0.76-11.48-0.42-24.89 0.75-14.35 1.25-24.62 2.95-24.82 4.09z"/>
		<path id="Down White Shadow" class="s1" d="m581.89 450.76c0.77 2.16 3.7 4.52 7.93 6.39 3.69 1.63 8.53 3.89 10.76 5.01 2.23 1.12 21.49 5.92 28.36 7.27 6.86 1.35 23.72 3.73 37.45 5.3 13.74 1.56 24.96 2.78 24.93 2.7-0.03-0.09 3.49 0.04 7.83 0.29 4.34 0.24 11.1 0.68 15.04 0.99 3.93 0.3 7.81 0.47 8.63 0.37 0.81-0.1 4.33 0.01 7.81 0.24 3.49 0.24 28.69 1.63 31.67 1.07 2.98-0.57 33.44-0.57 33.59-1.27 0.16-0.69-33.24-4.37-41.87-5.32-8.64-0.96-35.56-3.14-51.31-4.87-15.75-1.72-31.12-2.99-32.51-3.32-1.4-0.33-10.32-2.34-20.3-4.09-9.98-1.75-23.89-4.16-30.32-5.49-6.43-1.34-10.27-2.05-9.6-2.13 2.75-0.35-4.04-1.95-7.19-2.44-3.15-0.49-7.12-0.79-8.15-1.28-1.03-0.48-3.09-2.04-5.85-3.15l-8.12 0.32z"/>
		<path id="Darker Blue Shadow" fill-rule="evenodd" class="s2" d="m815.89 481.09c16.95-0.38 33.91-1.75 43.11-3.49 12.37-2.33 16.98-3.82 24.89-8.03 5.34-2.84 12.67-8.03 16.28-11.53 3.61-3.51 6.35-6.99 6.07-7.74-0.27-0.75 0.23-1.28 1.12-1.17 0.89 0.1 3.68-3.23 6.2-7.39 2.52-4.17 6.39-12.36 8.61-18.2 2.21-5.83 5.51-16.02 7.34-22.63 1.83-6.61 4.16-17.54 5.19-24.29 1.02-6.74 1.59-14.94 1.26-18.22-0.33-3.28-0.97-7.92-1.42-10.3-0.64-3.4-1.16-4.3-3.91-3.68-2.12 0.48-12.3 2-14.34 2.05-6.23 0.17-17.8 1.91-27.02 2.28-1.81 0.07-8.96-0.37-13.99-0.4-5.62-0.03-11.32-0.21-12.62-0.36-4.21-0.49-9.2-0.84-9.51-0.52-0.31 0.33 3.56 0.37 6.26 0.66 2.69 0.3 13.79 6.06 14.77 7.62 0.98 1.55 2.62 5.13 3.65 7.94 1.04 2.81 1.83 9.12 1.77 14.03-0.08 6.06-1.54 11.93-4.56 18.27-2.45 5.13-6.56 11.67-9.14 14.52-2.57 2.84-6.54 5.45-8.41 6.6-7.15 4.39-20.44 9.36-26.72 10.97-7.12 1.82-34.85 5.39-36.73 5.48-1.88 0.09-14.94 1.43-16.3 1.19-1.88-0.32-17.71 0.14-22.58 0.18-4.88 0.04-15.03 0.29-19.75 0.15-4.73-0.14-12.42-1.82-18.91-2.12-6.48-0.3-15.88-1.03-18.28-1.2-3.86-0.28-12.5-1.99-16.45-2.95-5.23-1.26-34.8-7.57-38.05-8.91-3.25-1.33-35.26-15.48-39.52-18.18-3.06-1.94-16.48-14.19-17.52-14.88-0.55-0.37-11.79-12.63-15.04-16.55-3.25-3.91-8.09-10.85-10.74-15.4-2.65-4.56-5.36-8.57-6-8.92-0.65-0.34-15.95-21.3-17.96-20.99-2.01 0.3-9.38 1.6-10.37 2.39-0.98 0.78-3.66 0.56-5.04 0-1.39-0.56-2.53 4.47-0.09 13.27 2.32 8.36 6.79 20.17 11.05 29.2 3.94 8.34 9.1 18.63 11.47 22.87 2.37 4.24 7.99 12.97 12.48 19.41 4.49 6.44 11.62 16.71 15.85 22.82 4.23 6.11 9.37 12.81 9.37 12.81 8.26 2.94 11.45 4.09 12.43 4.44 0.98 0.35 4.05 1.15 6.83 1.78 2.78 0.63 13.65 3.98 15.32 3.9 1.67-0.08 16.69 3.55 21.34 4.51 3.9 0.81 17.9 3.06 22.75 3.76 4.85 0.71 26.55 3.25 37.41 4.51 10.87 1.25 26.85 3.63 30.29 3.86 3.47 0.24 35.99 2.61 40.19 3.05 4.53 0.49 30.54 3.9 47.67 3.53z"/>
		<path id="Inside Light Blue Colour" class="s3" d="m558.91 353.17c0 0-0.84-2.07-1.81-4.17-0.58-1.25-4.15-10.9-8.12-20.29-4.68-11.07-8.03-21.13-9.53-28.6-1.27-6.33-2.48-15.97-2.69-21.42-0.22-5.44 0.01-13.52 0.49-17.94 0.48-4.43 2.19-13.34 3.79-19.81 1.6-6.47 5.26-16.77 8.13-22.88 2.88-6.12 7.67-14.95 10.64-19.62 2.98-4.67 8.6-12.15 12.5-16.61 3.9-4.47 10.17-10.66 13.93-13.75 3.76-3.1 13.93-10.27 19.63-13.91 5.71-3.64 23.39-12.6 33.85-16.4 9.76-3.55 30.3-8.25 37.64-9.1 7.33-0.86 19.33-1.32 26.66-1.02 7.33 0.3 18.99 1.76 25.9 3.25 6.91 1.49 18.44 5.45 25.61 8.8 7.17 3.35 14.81 7.15 16.98 8.46 2.16 1.3 3.21 2.28 2.32 2.17-0.89-0.11-8.48-0.91-16.86-1.77-8.39-0.86-20.41-1.43-26.72-1.26-6.31 0.18-17.06 1.22-23.88 2.32-7.24 1.17-19.79 4.66-30.17 8.38-10.96 3.94-22.15 8.95-29.23 13.1-6.3 3.7-22.18 15.32-24.48 16.58-2.31 1.25-8.25 6.41-13.21 11.48-4.96 5.06-12.74 14.25-17.3 20.42-4.55 6.17-11.75 18.88-15.99 28.26-4.58 10.12-8.73 22.36-10.21 30.14-1.37 7.21-3.48 30.03-3.2 36.11 0.29 6.08 1.25 14.45 2.13 18.6 0.88 4.15 3.55 16.01 7.62 25.79 1.98 4.75 5.03 15.08 10.59 24.72 6.88 11.94 18.07 17.14 20.25 18.53 4.24 2.71 13.09 7.49 19.66 10.64 6.57 3.15 15.06 6.66 18.88 7.81 3.82 1.16 9.4 3.11 12.4 4.36 3 1.24 25.74 5.45 34.87 6.72 6.25 0.87 11.8 1.78 12.32 2.02 0.52 0.24 6.25 0.69 12.73 0.99 6.49 0.31 15.65 0.67 20.38 0.81 4.72 0.14 15.04 0.64 19.92 0.6 4.87-0.04 44.07-0.3 58.97-2.31 22.36-3.01 29.49-8.46 39.31-13 14.35-6.64 18.98-19.25 21.43-24.38 3.02-6.34 4.48-12.21 4.56-18.27 0.06-4.91-0.73-11.22-1.77-14.03-1.03-2.81-2.67-6.39-3.65-7.94-0.98-1.56-8.3-6.58-8.84-6.32-0.54 0.27-1.5 0.03-2.13-0.55-0.64-0.57-13.09-2.31-27.67-3.87-19.62-2.09-29.31-3.96-37.21-7.17-7.36-2.99-12.54-6.3-16.66-10.66-3.28-3.48-6.98-8.04-8.21-10.14-1.24-2.11-3.27-6.23-4.52-9.18-1.26-2.94-2.91-8.59-3.68-12.56-0.76-3.97-1-10.15-0.52-13.72 0.47-3.57 1.86-8.83 3.08-11.69 1.23-2.86 4.22-7.35 6.67-9.98 2.44-2.63 15.49-13.59 28.99-24.36 13.51-10.78 30.8-25.36 38.43-32.41 7.64-7.05 21.45-20.7 30.69-30.34 9.24-9.63 17.9-19.3 19.23-21.48l2.42-3.96c-8.94-8.13-19.1-16.46-28.34-23.76-9.25-7.29-24.91-17.86-34.81-23.49-9.89-5.64-23.03-12.16-29.19-14.5q-1.02-0.38-2.53-0.8c-8.12-2.24-25.64-6.34-34.61-7.6-10.07-1.41-24.62-2.23-32.2-2.07-7.59 0.16-18.92 0.82-26.62 1.87-10.65 1.45-22.89 4.72-43.3 11.71-18.09 6.19-30.64 11.81-38.02 15.9-6.02 3.32-12.76 7.56-16.2 9.78-3.44 2.22-12.18 8.28-18.46 13.21-6.28 4.93-16.74 13.69-23.56 20.64-6.82 6.96-15.26 17.2-19.12 21.77-4.54 5.36-16.64 25.38-19.45 32.35-2.81 6.97-6.49 17.69-8.18 23.83-1.69 6.14-3.82 15.6-4.74 21.03-0.91 5.43-1.92 16.57-2.23 24.76-0.32 8.19-0.22 18.23 0.22 22.32 0.19 1.79 6.35 44.14 8.23 42.54 16.34-13.97 29.07 8.24 37.77 16.32z"/>
		<path id="Small White Circle" fill-rule="evenodd" class="s4" d="m710.52 311.33c-18.11 6.58-38.07-2.74-44.65-20.85-6.58-18.11 2.73-38.07 20.85-44.66 18.11-6.58 38.07 2.74 44.65 20.85 6.58 18.12-2.74 38.08-20.85 44.66z"/>
		<path id="Path 2" class="s2" d="m753.61 380.48c1.41 2.5 4.91 6.15 5.28 9.38 0.38 3.24-0.4 8.15-1.71 10.92-1.32 2.77-2.23 5.32-2.02 5.66 0.2 0.35 4.72-0.08 10.09-0.32 6.15-0.27 16.6-2.39 21.08-2.75 4.49-0.36 13.12 1.29 20.39 2.74 12.74 2.55 13.44 2.5 19.7-1.36 4.72-2.92 7.16-5.5 8.98-9.47 1.38-3.01 2.58-8.21 2.67-11.56 0.12-4.35-0.94-7.87-3.68-12.26-2.74-4.38-5.45-6.88-9.41-8.67-3.05-1.39-8.52-2.4-12.14-2.24-5.63 0.24-8.12 1.29-16.88 7.12-9.37 6.24-11.19 6.94-20.7 7.97-5.74 0.62-13.07 0.7-16.29 0.19l-11.04-1.54z"/>
		<path id="Small White Circle copy" fill-rule="evenodd" class="s4" d="m758.67 420.05c-18.12 6.58-38.08-2.74-44.66-20.85-6.58-18.11 2.74-38.07 20.85-44.65 18.11-6.58 38.07 2.74 44.66 20.85 6.58 18.11-2.74 38.07-20.85 44.65z"/>
		<path id="Inside Black Circle" fill-rule="evenodd" class="s5" d="m708.72 304.26c-13.96 5.07-29.34-2.11-34.42-16.08-5.07-13.96 2.11-29.34 16.07-34.42 13.97-5.07 29.35 2.11 34.42 16.08 5.08 13.96-2.11 29.34-16.07 34.42z"/>
		<path id="Inside Light Blue" class="s1" d="m629.63 92.97c-2.51 1.29-9.44 5.18-15.4 8.66-5.96 3.48-15.68 10.2-21.6 14.94-5.93 4.73-14.84 12.73-19.81 17.77-4.96 5.04-13.21 14.86-18.33 21.82-5.12 6.96-10.24 14.86-11.39 17.55-1.93 4.54-1.56 4.29 4.96-3.36 3.87-4.55 12.61-13.96 19.43-20.91 6.82-6.96 17.54-16.68 23.82-21.6 6.29-4.92 15.1-11.29 19.58-14.15 4.48-2.87 14.02-8.2 21.18-11.85 8.34-4.25 21.26-9.31 35.84-14.03 15.07-4.89 27.55-8.05 36.79-9.31 7.69-1.05 19.49-2.06 26.21-2.25 6.73-0.19 18.4 0.36 25.94 1.22 7.54 0.87 17.81 2.34 22.82 3.28 5.02 0.94 8.12 1.11 6.89 0.38-1.22-0.73-8.61-2.9-16.43-4.83-7.81-1.93-17.84-3.94-22.28-4.46-4.44-0.52-15.04-1-23.56-1.07-8.52-0.06-21.46 0.68-28.75 1.65-9.61 1.29-19.89 4.04-37.31 10-13.22 4.52-26.1 9.27-28.6 10.55z"/>
	</g>
	<path id="N" class="s6" aria-label="N"  d="m773.5 629l-0.5-121.4 41.9-0.3 0.8 198.5-44.5 0.3-70.7-120.9 0.5 121.4-41.8 0.3-0.9-198.5 44.6-0.3z"/>
	<path id="Shape 2" fill-rule="evenodd" class="s6" d="m100 772.23c92.65-26.63 297.32-67.55 625.72-67.55 328.4 0 526.9 45.06 646.37 74.89-361.77-70.67-973.32-64.54-1272.09-7.34z"/>
	<path id="F" fill-rule="evenodd" class="s7" d="m833.3 529l86.73 3.46-0.07 29.55-54.53-3.23-0.09 45.45 41.05 0.83-0.12 27.83-40.98-2.39-1.59 72.24-30.4-1.97zm176.27 10.25c11.68 3.2 14.85 19.3 14.85 19.3 0 0-0.04 54.67-0.79 68.32-0.75 13.62-12.21 19.76-12.21 19.76l15.69 66.49-32.78-4.32-11.28-60.48-17.81-2.11-1.15 60.93-31.88-2.74 1.16-170.85c0 0 59.32 3.91 76.2 5.7zm36.21 2.44l86.87 7.57-0.55 30.09-53.37-5.81-0.64 43.27 39.49 4.78-0.49 28.31-37.91-4.57-2.15 42.59 51.48 5.97 1.01 28.4-85.95-8.73zm154.09 48.54l-22.59-3.75-0.28 7.49c0 0-0.05 19.9-0.09 28.13 42.42 23.85 54.01 35.6 54.01 35.6 0 0-0.63 41.37-1.46 58.08-0.83 16.67-18.99 18.56-18.99 18.56 0 0-42.33-5.34-55.1-8.26-12.75-2.92-14.36-17.77-14.36-17.77l0.7-36.87 32.8-5.64-0.84 34.62 23.62 2.87c0 0 0.77-25.64 0.7-31.31-0.07-5.68-16.75-14.2-31.89-22.84-15.11-8.62-23.17-16.67-23.17-16.67 0 0 0.43-33.02 1.54-56.78 1.11-23.82 23.52-19.7 23.52-19.7 0 0 31.32 2.94 48.01 6.12 16.73 3.19 16.69 19.94 16.69 19.94l-0.84 34.76-31.16 3.01zm53.61-25.57l34.45 6.55-2.13 77.39 29.75 5.84 2.28-77.54 34.83 6.63-5.44 172.66-34.45-7.01 1.01-65.65-28.79-5.71-1.88 68.33-34.07-6.94zm-287.59 0.41l-0.43 54.66c0 0 27.31 6.03 26.84-3.53-0.46-9.58-0.83-49.73-0.83-49.73z"/>
	<path id="Layer 1" fill-rule="evenodd" class="s7" d="m173.13 718.29l26.11-5.45-1.33-28.59 29.09-3.22c0 0 0.79 13.81 0.98 30.18 0.2 16.34-15.18 24.7-15.18 24.7 0 0-21.86 3.22-45.35 8.01-23.45 4.78-22.9-15.34-22.9-15.34 0 0-5.31-107.72-6.28-126.08-0.98-18.41 17.02-22.64 17.02-22.64 0 0 29.46-6.21 45.57-9.49 16.14-3.28 21.86 15.54 21.86 15.54l1.76 39.04-29.05 6.16-1.48-31.75-24.89 5.31zm104.8-20.46l44.5-7.83 1.13 28.67-75.7 11.4-7.49-167 31.67-5.32zm52.98-148.28l81.73-10.13 1.04 30.69-50.34 4.47 1.1 41.14 40.09-3.49 1.67 28.25-41.04 4.58 1.89 41.4 50.43-4.72 0.98 28.76-82.45 7zm125.56-16.55l35.55-1.69 40.33 170.08-32.47 0.93-5.19-32.31-31.06 0.66-5.96 34.6-30.89 2.06zm9.2 112.5l23.99-2.11-13.29-64.54zm76.29-114.5l30.03-0.48 38.97 97.51-1.77-99.51 30.19 2.47 3.57 169.34-31.28-0.81-36.37-93.1 2.31 92.87-32.56 0.93z"/>
	<path id="Sparkle" class="s6" d="m445.97 412.83c0 0 54.05-17.38 29.84-106.59 16.87 35.73 28.32 75.77 78.92 71.5-37.13 22.85-33.89 47.49-27.59 96.65-30.62-66.33-48.94-61.32-81.17-61.56z"/>
	<path id="Sparkle copy 2" class="s6" d="m905.75 440.26c0 0 26.95-7.96 11.75-62.99 9.76 21.64 17.07 46.77 46.65 45.66-21.53 13.42-18.97 29.37-13.89 61.55-19.09-44.5-28.59-42.41-44.51-44.22z"/>
	<path id="Sparkle copy" class="s6" d="m814.77 99.16c0 0 36.45-10.76 15.89-85.16 13.19 29.27 23.07 63.24 63.07 61.74-29.11 18.13-25.64 39.7-18.78 83.2-25.81-60.16-38.65-57.33-60.18-59.78z"/>
	<path id="HELMET" class="s7" aria-label="HELMET"  d="m613.9 806.9c0 0 3.6-0.2 7.3-0.4 3.6-0.1 7.3-0.3 7.3-0.3 0 0-0.2-3.9-0.4-9.7-0.1-1.5-0.2-3.1-0.2-4.8-0.1-1.7-0.2-3.4-0.2-5.3-0.1-1.8-0.2-3.7-0.3-5.6-0.1-1.9-0.1-3.9-0.2-5.8-0.1-2-0.2-3.9-0.3-5.9-0.1-1.9-0.1-3.8-0.2-5.6-0.1-1.8-0.2-3.6-0.2-5.3-0.1-1.7-0.2-3.3-0.2-4.7-0.3-5.9-0.4-9.8-0.4-9.8 0 0-3.8 0.2-7.5 0.3-3.7 0.2-7.5 0.4-7.5 0.4 0 0 0.1 1.5 0.2 3.7 0.1 2.3 0.2 5.3 0.4 8.4 0.1 3 0.3 6 0.4 8.3 0.1 2.2 0.2 3.7 0.2 3.7 0 0-4.7 0.3-9.4 0.5-4.7 0.3-9.4 0.5-9.4 0.5 0 0-0.1-1.5-0.2-3.8-0.1-2.2-0.3-5.3-0.5-8.3-0.1-3-0.3-6-0.4-8.3-0.2-2.2-0.2-3.8-0.2-3.8 0 0-3.8 0.2-7.5 0.5-3.8 0.2-7.5 0.4-7.5 0.4 0 0 0.2 3.9 0.6 9.8 0.1 1.4 0.2 3 0.3 4.7 0.1 1.7 0.2 3.4 0.3 5.3 0.1 1.8 0.2 3.7 0.4 5.6 0.1 1.9 0.2 3.9 0.3 5.8 0.1 2 0.2 3.9 0.4 5.9 0.1 1.9 0.2 3.8 0.3 5.6 0.1 1.8 0.2 3.6 0.3 5.3 0.1 1.7 0.2 3.2 0.3 4.7 0.4 5.9 0.6 9.8 0.6 9.8 0 0 3.7-0.2 7.3-0.5 3.6-0.2 7.3-0.4 7.3-0.4 0 0-0.1-1.6-0.2-4.2-0.2-2.5-0.4-5.8-0.5-9.2-0.2-3.3-0.4-6.7-0.6-9.2-0.1-2.5-0.2-4.2-0.2-4.2 0 0 4.7-0.2 9.4-0.4 4.6-0.3 9.3-0.5 9.3-0.5zm63.4-64.8c0 0-2.5 0-6.1 0.1-1.8 0.1-3.9 0.1-6.2 0.2-2.3 0-4.7 0.1-7.1 0.2-2.4 0-4.9 0.1-7.1 0.2-2.3 0.1-4.4 0.1-6.3 0.2-3.6 0.1-6 0.2-6 0.2 0 0 0.1 3.9 0.4 9.8 0 1.5 0.1 3 0.1 4.7 0.1 1.7 0.2 3.5 0.2 5.3 0.1 1.8 0.2 3.7 0.2 5.7 0.1 1.9 0.2 3.8 0.2 5.8 0.1 1.9 0.2 3.9 0.3 5.8 0 1.9 0.1 3.8 0.2 5.7 0 1.8 0.1 3.6 0.2 5.2 0 1.7 0.1 3.3 0.1 4.8 0.3 5.8 0.4 9.8 0.4 9.8 0 0 2.4-0.1 5.9-0.3 1.8 0 3.8-0.1 6.1-0.2 2.2 0 4.5-0.1 6.9-0.2 2.4 0 4.7-0.1 7-0.2 2.2 0 4.2-0.1 6-0.1 3.6-0.1 5.9-0.2 5.9-0.2 0 0 0-2.6-0.1-5.3-0.1-2.6-0.1-5.3-0.1-5.3 0 0-1.5 0-3.7 0.1-2.1 0-5.1 0.1-8 0.2-2.9 0.1-5.8 0.1-8 0.2-2.2 0.1-3.6 0.1-3.6 0.1 0 0-0.2-4-0.3-8-0.1-4-0.2-8-0.2-8 0 0 4.8-0.1 9.5-0.2 4.8-0.2 9.6-0.3 9.6-0.3 0 0 0-2.6-0.1-5.2-0.1-2.6-0.1-5.2-0.1-5.2 0 0-4.8 0.1-9.6 0.3-4.8 0.1-9.7 0.3-9.7 0.3 0 0-0.1-3.8-0.2-7.5-0.1-3.8-0.2-7.5-0.2-7.5 0 0 1.4-0.1 3.4-0.1 2.1-0.1 4.9-0.2 7.7-0.3 2.7 0 5.5-0.1 7.6-0.1 2.1-0.1 3.4-0.1 3.4-0.1zm24.4-0.4c0 0-3.7 0-7.5 0.1-3.7 0-7.5 0.1-7.5 0.1 0 0 0.1 3.9 0.2 9.8 0.1 1.4 0.1 3 0.1 4.7 0 1.7 0.1 3.5 0.1 5.3 0 1.8 0.1 3.7 0.1 5.6 0 2 0.1 3.9 0.1 5.9 0.1 1.9 0.1 3.9 0.1 5.8 0.1 1.9 0.1 3.8 0.1 5.7 0.1 1.8 0.1 3.6 0.1 5.2 0.1 1.7 0.1 3.3 0.1 4.8 0.1 5.8 0.2 9.8 0.2 9.8 0 0 2.3-0.1 5.8-0.1 1.7-0.1 3.8-0.1 5.9-0.1 2.2-0.1 4.5-0.1 6.8-0.1 2.4 0 4.7-0.1 6.9-0.1 2.1 0 4.2 0 5.9 0 3.5 0 5.8 0 5.8 0 0 0 0.4-3 0.7-5.9 0.4-2.9 0.8-5.9 0.8-5.9 0 0-1.5 0-3.8 0-2.3 0-5.3 0.1-8.3 0.1-3 0-6 0-8.3 0.1-2.3 0-3.8 0-3.8 0zm88.2 0.4c0 0-4.7-0.1-9.5-0.2-4.7-0.1-9.5-0.1-9.5-0.1 0 0-0.6 2.6-1.4 6.6-0.5 2-1 4.3-1.5 6.8-0.6 2.4-1.2 5.1-1.8 7.7-0.5 2.7-1.1 5.3-1.7 7.8-0.5 2.5-1 4.8-1.5 6.8-0.8 4-1.4 6.6-1.4 6.6 0 0-0.5-2.7-1.4-6.6-0.4-2-0.9-4.4-1.4-6.9-0.5-2.4-1.1-5.1-1.7-7.8-0.5-2.6-1.1-5.3-1.6-7.8-0.6-2.5-1-4.8-1.5-6.8-0.8-4-1.4-6.6-1.4-6.6 0 0-4.7-0.1-9.4-0.1-4.8 0-9.5 0-9.5 0 0 0-0.3 3.9-0.7 9.8-0.1 1.4-0.3 3-0.4 4.7-0.1 1.7-0.2 3.5-0.4 5.3-0.1 1.8-0.3 3.7-0.4 5.7-0.1 1.9-0.3 3.8-0.4 5.8-0.2 2-0.3 3.9-0.5 5.8-0.1 2-0.3 3.9-0.4 5.7-0.1 1.8-0.2 3.6-0.4 5.3-0.1 1.7-0.2 3.2-0.3 4.7-0.4 5.9-0.7 9.8-0.7 9.8 0 0 3.5 0 7.1 0 3.6 0 7.1 0 7.1 0 0 0 0.1-1.5 0.2-3.8 0.1-2.3 0.3-5.3 0.4-8.3 0.1-3.1 0.3-6.1 0.4-8.4 0.1-2.3 0.2-3.8 0.2-3.8 0.1-2.2 0.2-4.3 0.2-6.4 0.1-2.1 0.1-4.2 0.1-6.3 0-2.1-0.1-4.2-0.1-6.3-0.1-2.2-0.2-4.4-0.4-6.7 0 0 0.7 2.7 1.6 6.8 0.5 2 1 4.4 1.6 6.9 0.6 2.6 1.2 5.3 1.9 8 0.6 2.7 1.2 5.5 1.8 8 0.6 2.6 1.1 4.9 1.6 7 0.9 4.1 1.5 6.8 1.5 6.8 0 0 3.5 0 6.9 0 3.5 0.1 7 0.1 7 0.1 0 0 0.6-2.7 1.5-6.7 0.5-2.1 1.1-4.4 1.7-7 0.6-2.5 1.2-5.2 1.9-7.9 0.6-2.7 1.3-5.4 1.9-8 0.6-2.5 1.1-4.9 1.6-6.9 1-4 1.7-6.7 1.7-6.7-0.2 1.9-0.3 3.9-0.4 6 0 2.1-0.1 4.2-0.1 6.4 0 2.1 0 4.3 0 6.5 0.1 2.2 0.1 4.4 0.2 6.6 0 0 0 1.5 0.1 3.8 0.1 2.3 0.1 5.4 0.2 8.5 0.1 3 0.2 6.1 0.2 8.4 0.1 2.3 0.1 3.8 0.1 3.8 0 0 3.6 0.1 7.2 0.1 3.6 0.1 7.2 0.2 7.2 0.2zm52.5 1.7c0 0-2.5-0.1-6.1-0.3-1.8 0-3.9-0.1-6.2-0.2-2.3-0.1-4.7-0.2-7.1-0.3-2.4-0.1-4.9-0.1-7.1-0.2-2.3-0.1-4.4-0.1-6.2-0.2-3.7-0.1-6.1-0.2-6.1-0.2 0 0-0.1 3.9-0.3 9.8 0 1.5-0.1 3.1-0.1 4.7 0 1.7-0.1 3.5-0.1 5.3-0.1 1.9-0.1 3.8-0.2 5.7 0 1.9-0.1 3.9-0.2 5.8 0 2-0.1 3.9-0.1 5.8-0.1 2-0.1 3.9-0.2 5.7 0 1.8-0.1 3.6-0.1 5.3-0.1 1.7-0.1 3.2-0.1 4.7-0.2 5.9-0.3 9.8-0.3 9.8 0 0 2.4 0.1 5.9 0.2 1.8 0 3.8 0.1 6.1 0.1 2.2 0.1 4.5 0.2 6.9 0.3 2.4 0.1 4.7 0.1 6.9 0.2 2.3 0.1 4.3 0.2 6.1 0.3 3.5 0.1 5.9 0.2 5.9 0.2 0 0 0.1-2.7 0.2-5.3 0.1-2.7 0.3-5.3 0.3-5.3 0 0-1.5-0.1-3.7-0.2-2.2-0.1-5.1-0.2-8-0.3-2.9-0.1-5.8-0.2-8-0.3-2.2-0.1-3.7-0.1-3.7-0.1 0 0 0.2-4 0.3-8 0.1-4 0.3-8 0.3-8 0 0 4.8 0.2 9.5 0.3 4.8 0.2 9.6 0.4 9.6 0.4 0 0 0.1-2.6 0.2-5.2 0.1-2.6 0.2-5.2 0.2-5.2 0 0-4.8-0.2-9.6-0.3-4.8-0.2-9.6-0.4-9.6-0.4 0 0 0.1-3.7 0.3-7.5 0.1-3.7 0.2-7.5 0.2-7.5 0 0 1.4 0.1 3.5 0.2 2 0 4.8 0.1 7.6 0.2 2.8 0.1 5.5 0.2 7.6 0.3 2.1 0.1 3.5 0.2 3.5 0.2zm52.6 2.7c0 0-3-0.2-7.6-0.4-2.2-0.2-4.9-0.3-7.7-0.5-2.8-0.1-5.9-0.3-8.9-0.5-3-0.1-6-0.3-8.8-0.4-2.9-0.2-5.5-0.3-7.8-0.4-4.5-0.2-7.5-0.3-7.5-0.3 0 0-0.2 2.8-0.3 5.6-0.1 2.9-0.2 5.7-0.2 5.7 0 0 4 0.2 8.1 0.4 4 0.2 8.1 0.4 8.1 0.4 0 0-0.2 3.2-0.4 8-0.1 2.4-0.3 5.2-0.4 8.2-0.2 3-0.3 6.2-0.5 9.4-0.1 3.2-0.3 6.4-0.5 9.3-0.1 3-0.2 5.8-0.4 8.2-0.2 4.8-0.4 8-0.4 8 0 0 3.7 0.2 7.3 0.4 3.7 0.2 7.3 0.4 7.3 0.4 0 0 0.2-3.2 0.5-8 0.1-2.4 0.3-5.2 0.4-8.2 0.2-3 0.4-6.2 0.6-9.4 0.1-3.2 0.3-6.3 0.5-9.3 0.1-3 0.3-5.8 0.4-8.2 0.3-4.8 0.5-8 0.5-8 0 0 3.9 0.2 7.7 0.4 3.9 0.3 7.8 0.5 7.8 0.5z"/>
</svg>